HIERARCHY
ROOT Hips
{
	OFFSET 0.000000 0.000000 0.000000
	CHANNELS 6 Xposition Yposition Zposition Xrotation Yrotation Zrotation
	JOINT LeftUpLeg_virtual
	{
		OFFSET 0.000000 0.000000 0.000000
		CHANNELS 3 Xrotation Yrotation Zrotation
		JOINT LeftUpLeg
		{
			OFFSET 13.026900 -6.336304 -1.092800
			CHANNELS 3 Xrotation Yrotation Zrotation
			JOINT LeftLeg
			{
				OFFSET 0.524474 -46.096886 9.782700
				CHANNELS 3 Xrotation Yrotation Zrotation
				JOINT LeftFoot
				{
					OFFSET -0.524474 -53.427422 -12.948200
					CHANNELS 3 Xrotation Yrotation Zrotation
					JOINT LeftToeBase
					{
						OFFSET 0.192200 -14.009700 16.364100
						CHANNELS 3 Xrotation Yrotation Zrotation
						JOINT LeftToe_End
						{
							OFFSET -1.784700 -0.561700 9.474800
							CHANNELS 3 Xrotation Yrotation Zrotation
							End Site
							{
								OFFSET 0 0 0
							}
						}
					}
				}
			}
		}
	}
	JOINT RightUpLeg_virtual
	{
		OFFSET 0.000000 0.000000 0.000000
		CHANNELS 3 Xrotation Yrotation Zrotation
		JOINT RightUpLeg
		{
			OFFSET -12.883000 -6.336304 -1.092800
			CHANNELS 3 Xrotation Yrotation Zrotation
			JOINT RightLeg
			{
				OFFSET -0.524587 -46.096825 9.782800
				CHANNELS 3 Xrotation Yrotation Zrotation
				JOINT RightFoot
				{
					OFFSET 0.524587 -53.427383 -12.948300
					CHANNELS 3 Xrotation Yrotation Zrotation
					JOINT RightToeBase
					{
						OFFSET -0.192200 -14.009700 16.364100
						CHANNELS 3 Xrotation Yrotation Zrotation
						JOINT RightToe_End
						{
							OFFSET 1.784700 -0.561700 9.474800
							CHANNELS 3 Xrotation Yrotation Zrotation
							End Site
							{
								OFFSET 0 0 0
							}
						}
					}
				}
			}
		}
	}
	JOINT Spine_virtual
	{
		OFFSET 0.000000 0.000000 0.000000
		CHANNELS 3 Xrotation Yrotation Zrotation
		JOINT Spine
		{
			OFFSET 0.072000 7.257294 -0.789700
			CHANNELS 3 Xrotation Yrotation Zrotation
			JOINT Spine1
			{
				OFFSET 0.000000 12.508769 -0.658067
				CHANNELS 3 Xrotation Yrotation Zrotation
				JOINT Spine1_split
				{
					OFFSET 0.000000 12.508769 -0.658067
					CHANNELS 3 Xrotation Yrotation Zrotation
					JOINT Spine2
					{
						OFFSET 0.000000 12.508769 -0.658067
						CHANNELS 3 Xrotation Yrotation Zrotation
						JOINT Neck_virtual
						{
							OFFSET 0.000000 0.000000 0.000000
							CHANNELS 3 Xrotation Yrotation Zrotation
							JOINT Neck
							{
								OFFSET 0.000000 14.033295 7.520400
								CHANNELS 3 Xrotation Yrotation Zrotation
								JOINT Head
								{
									OFFSET 0.000000 8.198502 5.703100
									CHANNELS 3 Xrotation Yrotation Zrotation
									JOINT HeadTop_End
									{
										OFFSET 0.000000 17.760803 13.332701
										CHANNELS 3 Xrotation Yrotation Zrotation
										End Site
										{
											OFFSET 0 0 0
										}
									}
								}
							}
						}
						JOINT LeftShoulder_virtual
						{
							OFFSET 0.000000 0.000000 0.000000
							CHANNELS 3 Xrotation Yrotation Zrotation
							JOINT LeftShoulder
							{
								OFFSET 6.292450 5.785301 -0.669000
								CHANNELS 3 Xrotation Yrotation Zrotation
								JOINT LeftShoulder_split
								{
									OFFSET 6.292450 5.785301 -0.669000
									CHANNELS 3 Xrotation Yrotation Zrotation
									JOINT LeftArm
									{
										OFFSET 13.907140 -6.093903 1.965100
										CHANNELS 3 Xrotation Yrotation Zrotation
										JOINT LeftForeArm
										{
											OFFSET 34.140198 0.000000 0.000000
											CHANNELS 3 Xrotation Yrotation Zrotation
											JOINT LeftHand
											{
												OFFSET 40.960209 0.000000 0.000000
												CHANNELS 3 Xrotation Yrotation Zrotation
												End Site
												{
													OFFSET 0 0 0
												}
											}
										}
									}
								}
							}
						}
						JOINT RightShoulder_virtual
						{
							OFFSET 0.000000 0.000000 0.000000
							CHANNELS 3 Xrotation Yrotation Zrotation
							JOINT RightShoulder
							{
								OFFSET -6.292450 5.785301 -0.669000
								CHANNELS 3 Xrotation Yrotation Zrotation
								JOINT RightShoulder_split
								{
									OFFSET -6.292450 5.785301 -0.669000
									CHANNELS 3 Xrotation Yrotation Zrotation
									JOINT RightArm
									{
										OFFSET -13.907140 -6.093903 1.965100
										CHANNELS 3 Xrotation Yrotation Zrotation
										JOINT RightForeArm
										{
											OFFSET -34.140198 0.000000 0.000000
											CHANNELS 3 Xrotation Yrotation Zrotation
											JOINT RightHand
											{
												OFFSET -40.960209 0.000000 0.000000
												CHANNELS 3 Xrotation Yrotation Zrotation
												End Site
												{
													OFFSET 0 0 0
												}
											}
										}
									}
								}
							}
						}
					}
				}
			}
		}
	}
}
MOTION
Frames: 10
Frame Time: 0.03333333
-0.923658 112.655380 0.620672 0.000000 0.000000 0.000000 -6.778856 5.306088 -0.853602 -24.474398 10.661060 14.198319 32.095448 1.478589 3.649467 0.790828 -12.962918 -7.279286 -3.240324 0.203257 0.099218 0.000000 0.000000 0.000000 -6.987494 7.304125 -0.846169 1.851791 -10.804452 1.855594 18.160186 -8.469181 -4.592982 -9.052711 -16.178389 6.385691 -5.343817 -0.105611 0.033283 0.000000 0.000000 0.000000 -7.080593 5.255249 -1.138934 4.079654 0.297984 3.111623 1.361785 0.328431 2.988165 0.738161 -0.572052 -0.181755 0.000000 0.000000 0.000000 1.049885 0.681493 2.923055 11.377855 -2.046923 -1.125353 3.603980 -10.064254 -7.252407 0.000000 0.000000 0.000000 0.747353 0.685148 2.749865 1.705234 -15.787135 -12.287698 -0.506744 0.187343 -2.395986 6.012572 -3.461346 -69.342799 -1.613789 0.439427 0.200590 0.000000 0.000000 0.000000 0.906595 0.578676 2.997140 2.584508 8.949277 18.495087 -0.236010 2.812371 -1.062164 26.026818 7.870342 59.418534 1.016607 7.186704 0.735882 0.000000 0.000000 0.000000 
-0.802994 112.868607 0.688213 0.000000 0.000000 0.000000 -6.396680 4.743249 -0.869237 -24.327155 10.925145 14.096453 31.554289 1.209655 3.606549 0.771005 -11.941290 -7.251701 -3.165604 0.196431 0.087532 0.000000 0.000000 0.000000 -6.613350 6.667886 -0.884143 1.180677 -10.779650 1.605116 17.976366 -8.496988 -4.558305 -8.643725 -15.488958 6.345667 -5.378074 -0.077043 0.035276 0.000000 0.000000 0.000000 -6.636038 4.740178 -1.152715 3.984838 0.157965 3.101298 1.408150 0.196849 2.976244 0.759255 -0.553509 -0.190548 0.000000 0.000000 0.000000 1.127048 0.529292 2.909961 11.077013 -1.767848 -1.048830 2.733083 -8.809085 -6.703239 0.000000 0.000000 0.000000 0.754638 0.530136 2.705385 1.683133 -16.063104 -12.576646 -0.554577 0.337232 -2.210701 6.350952 -2.378899 -69.519687 -1.569351 0.714476 0.341265 0.000000 0.000000 0.000000 0.992288 0.430619 3.007857 2.655908 8.229423 18.303152 -0.563660 2.688457 -1.215194 28.239865 7.993113 58.546858 1.088458 7.142784 0.631605 0.000000 0.000000 0.000000 
-0.679768 113.090675 0.718321 0.000000 0.000000 0.000000 -6.022889 3.950119 -0.945551 -24.085221 11.170384 14.056888 31.045829 0.971958 3.531295 0.605929 -10.686529 -7.264883 -3.077371 0.190075 0.068226 0.000000 0.000000 0.000000 -6.240858 5.820211 -0.973946 0.400731 -10.792625 1.326578 17.770609 -8.497299 -4.485226 -8.191474 -14.533475 6.295165 -5.376261 -0.052038 0.048580 0.000000 0.000000 0.000000 -6.194313 4.009034 -1.224115 3.928398 0.065378 3.096545 1.485962 0.098517 2.977921 0.798101 -0.419671 -0.176571 0.000000 0.000000 0.000000 1.200974 0.405773 2.918628 10.729684 -1.484871 -0.951421 1.856344 -7.504891 -6.141440 0.000000 0.000000 0.000000 0.767494 0.408809 2.666584 1.665518 -16.277913 -12.784275 -0.692810 0.555296 -2.053105 6.665339 -1.506960 -69.789118 -1.546038 0.990204 0.435971 0.000000 0.000000 0.000000 1.079224 0.319667 3.029088 2.706081 7.785161 18.155573 -0.910602 2.469515 -1.281498 28.939727 7.458021 57.981401 1.038345 6.587748 0.644276 0.000000 0.000000 0.000000 
-0.565240 113.311852 0.705935 0.000000 0.000000 0.000000 -5.660050 3.004930 -1.074602 -23.784373 11.361461 14.061570 30.579440 0.746623 3.441191 0.308425 -9.268013 -7.315419 -3.010225 0.183623 0.043227 0.000000 0.000000 0.000000 -5.874852 4.830446 -1.109878 -0.445380 -10.833958 1.035556 17.537556 -8.485275 -4.378929 -7.694746 -13.362310 6.234338 -5.336661 -0.035192 0.070895 0.000000 0.000000 0.000000 -5.773328 3.093360 -1.355623 3.899749 0.016629 3.097604 1.593445 0.029811 2.988478 0.821575 -0.236437 -0.147297 0.000000 0.000000 0.000000 1.272895 0.316321 2.942842 10.325178 -1.205466 -0.827948 0.979994 -6.176485 -5.568222 0.000000 0.000000 0.000000 0.791974 0.322467 2.636305 1.661851 -16.428813 -12.871753 -0.879754 0.717922 -1.918333 7.042128 -1.010683 -70.101059 -1.545605 1.154138 0.460279 0.000000 0.000000 0.000000 1.152187 0.249119 3.058987 2.730353 7.613258 18.089076 -1.124275 2.208305 -1.299897 28.202044 6.540427 57.736627 0.951868 5.764277 0.737452 0.000000 0.000000 0.000000 
-0.463905 113.537071 0.671770 0.000000 0.000000 0.000000 -5.308295 1.968263 -1.241469 -23.430768 11.504522 14.092424 30.132804 0.510701 3.351962 -0.067777 -7.787069 -7.400051 -2.991870 0.176679 0.023494 0.000000 0.000000 0.000000 -5.521183 3.739474 -1.279691 -1.326248 -10.893915 0.743169 17.277308 -8.468482 -4.248446 -7.155462 -12.049394 6.184788 -5.318837 -0.030093 0.096422 0.000000 0.000000 0.000000 -5.392028 2.053549 -1.532472 3.889698 -0.003960 3.102013 1.721460 -0.021147 2.997686 0.830737 -0.085083 -0.135589 0.000000 0.000000 0.000000 1.343840 0.255458 2.968447 9.893589 -0.939553 -0.673528 0.146112 -4.864408 -4.985755 0.000000 0.000000 0.000000 0.835403 0.264070 2.614290 1.685484 -16.507710 -12.831992 -1.092374 0.762895 -1.812617 7.492466 -0.950785 -70.407427 -1.579346 1.135589 0.417927 0.000000 0.000000 0.000000 1.220942 0.207807 3.080710 2.718667 7.622197 18.055516 -1.111360 1.982654 -1.278374 26.472580 5.696042 57.645301 0.877764 5.158453 0.857023 0.000000 0.000000 0.000000 
-0.378246 113.759613 0.614481 0.000000 0.000000 0.000000 -4.967936 0.903461 -1.419561 -23.047210 11.611281 14.134136 29.696249 0.255310 3.265845 -0.445066 -6.328771 -7.506020 -2.992540 0.166291 0.010404 0.000000 0.000000 0.000000 -5.187377 2.615114 -1.465930 -2.175781 -10.964282 0.457546 16.983395 -8.463572 -4.108815 -6.582211 -10.668231 6.144762 -5.346025 -0.035808 0.121041 0.000000 0.000000 0.000000 -5.057938 0.955976 -1.723787 3.887818 -0.016834 3.109340 1.857892 -0.069860 2.997024 0.798784 -0.027539 -0.121284 0.000000 0.000000 0.000000 1.415947 0.209819 2.979408 9.473466 -0.685433 -0.497060 -0.615666 -3.590830 -4.394010 0.000000 0.000000 0.000000 0.906866 0.219162 2.595873 1.732981 -16.540862 -12.687783 -1.297819 0.713772 -1.738235 7.958865 -1.282794 -70.672876 -1.636713 0.981021 0.333415 0.000000 0.000000 0.000000 1.288073 0.180218 3.081826 2.677728 7.768574 18.007597 -0.870679 1.869817 -1.288132 24.303831 5.458842 57.538688 0.864598 5.135988 0.938697 0.000000 0.000000 0.000000 
-0.306923 113.979370 0.559652 0.000000 0.000000 0.000000 -4.646979 -0.134426 -1.591215 -22.647557 11.711383 14.172038 29.229388 -0.014830 3.187175 -0.771871 -4.952277 -7.613273 -2.975582 0.154172 0.003613 0.000000 0.000000 0.000000 -4.875365 1.515767 -1.650901 -2.948994 -11.029439 0.190333 16.661881 -8.487488 -3.973201 -6.025452 -9.301796 6.069452 -5.361805 -0.047981 0.142836 0.000000 0.000000 0.000000 -4.771746 -0.131073 -1.911125 3.885364 -0.040139 3.116922 1.985640 -0.126052 2.982040 0.778835 -0.069091 -0.130676 0.000000 0.000000 0.000000 1.491667 0.167351 2.965777 9.100307 -0.444849 -0.307891 -1.278957 -2.384364 -3.798792 0.000000 0.000000 0.000000 1.000917 0.172265 2.571905 1.793270 -16.567025 -12.490697 -1.450647 0.605915 -1.669239 8.348142 -1.926814 -70.872952 -1.708718 0.761263 0.237102 0.000000 0.000000 0.000000 1.365467 0.150949 3.064120 2.620989 8.010568 17.911020 -0.582062 1.787624 -1.316214 22.131379 6.194786 57.353078 0.934023 5.687596 0.953942 0.000000 0.000000 0.000000 
-0.249261 114.195404 0.509222 0.000000 0.000000 0.000000 -4.348404 -1.112273 -1.751305 -22.240225 11.833549 14.196203 28.694912 -0.271413 3.114289 -1.039247 -3.692842 -7.701094 -2.899950 0.141944 -0.002162 0.000000 0.000000 0.000000 -4.586358 0.481324 -1.829492 -3.621697 -11.077935 -0.051446 16.281885 -8.550027 -3.850621 -5.506759 -8.008332 5.942912 -5.330991 -0.060774 0.160446 0.000000 0.000000 0.000000 -4.521177 -1.158201 -2.076211 3.878732 -0.075728 3.126582 2.101740 -0.190320 2.953851 0.806569 -0.136039 -0.131423 0.000000 0.000000 0.000000 1.561465 0.120355 2.927286 8.791531 -0.221280 -0.121640 -1.843881 -1.267707 -3.213721 0.000000 0.000000 0.000000 1.116440 0.117152 2.540723 1.853975 -16.603708 -12.311037 -1.566665 0.492846 -1.634100 8.566026 -2.795310 -70.991156 -1.782797 0.626878 0.162058 0.000000 0.000000 0.000000 1.461648 0.113069 3.028004 2.558218 8.323629 17.751071 -0.354603 1.755777 -1.341051 20.251649 7.863388 57.147527 1.033384 6.669346 0.886668 0.000000 0.000000 0.000000 
-0.201176 114.403549 0.459944 0.000000 0.000000 0.000000 -4.075783 -1.993371 -1.898034 -21.847994 11.991724 14.200627 28.077755 -0.483862 3.040139 -1.240578 -2.571618 -7.760150 -2.780158 0.132724 -0.011235 0.000000 0.000000 0.000000 -4.319876 -0.441986 -1.998287 -4.177269 -11.094963 -0.257753 15.852485 -8.641623 -3.746610 -5.002436 -6.827280 5.784013 -5.289351 -0.069540 0.170590 0.000000 0.000000 0.000000 -4.287290 -2.088340 -2.214996 3.866601 -0.115200 3.142524 2.197499 -0.257244 2.917465 0.843455 -0.173912 -0.122267 0.000000 0.000000 0.000000 1.613900 0.067308 2.872078 8.540823 -0.018010 0.046924 -2.336517 -0.267858 -2.641637 0.000000 0.000000 0.000000 1.232657 0.054740 2.503405 1.890329 -16.677903 -12.203045 -1.650995 0.395111 -1.597923 8.557379 -3.859713 -71.011783 -1.835079 0.676094 0.129716 0.000000 0.000000 0.000000 1.563978 0.069033 2.981828 2.498581 8.745525 17.553866 -0.346456 1.680725 -1.323907 18.700406 10.272921 56.985505 1.133755 7.734683 0.748622 0.000000 0.000000 0.000000 
-0.153355 114.601395 0.415747 0.000000 0.000000 0.000000 -3.829591 -2.777191 -2.037973 -21.498178 12.171107 14.187903 27.414475 -0.628515 2.968256 -1.360779 -1.609407 -7.785920 -2.666302 0.127479 -0.020986 0.000000 0.000000 0.000000 -4.069880 -1.254489 -2.158990 -4.638609 -11.080738 -0.432952 15.375429 -8.742092 -3.658209 -4.451957 -5.768756 5.641364 -5.300288 -0.073026 0.170779 0.000000 0.000000 0.000000 -4.057835 -2.902062 -2.333097 3.846147 -0.144724 3.161971 2.275818 -0.314175 2.875739 0.864039 -0.151829 -0.122584 0.000000 0.000000 0.000000 1.649650 0.017941 2.813747 8.330054 0.154821 0.190571 -2.777532 0.575563 -2.086751 0.000000 0.000000 0.000000 1.334493 -0.002541 2.464116 1.891621 -16.782693 -12.198074 -1.736839 0.330905 -1.545472 8.302319 -5.155890 -70.916625 -1.864664 0.898627 0.142972 0.000000 0.000000 0.000000 1.659580 0.027432 2.932020 2.441770 9.272534 17.334192 -0.551177 1.582781 -1.233990 17.338737 13.102270 56.945114 1.173695 8.735743 0.594510 0.000000 0.000000 0.000000 
